<?xml version="1.0" encoding="utf-8"?>
<!-- Generator: Adobe Illustrator 27.0.0, SVG Export Plug-In . SVG Version: 6.00 Build 0)  -->
<svg version="1.1" id="图层_1" xmlns="http://www.w3.org/2000/svg" xmlns:xlink="http://www.w3.org/1999/xlink" x="0px" y="0px"
	 viewBox="0 0 549.8 549.8" style="enable-background:new 0 0 549.8 549.8;" xml:space="preserve">
<style type="text/css">
	.st0{fill-opacity:0;}
	.st1{fill:#FFFFFF;fill-opacity:0.85;}
</style>
<g>
	<rect x="21.2" class="st0" width="507.2" height="549.8"/>
	<path class="st1" d="M275,263.2l235.5-133.8c-3.8-3.8-8.2-6.8-13.8-9.8L320.2,19.2C305,10.5,289.8,5.8,275,5.8
		c-15,0-30.2,4.8-45.5,13.5L53.2,119.8c-5.5,3-10,6-14,9.8L275,263.2z M257.8,549.8V293.2l-234.5-134c-1.5,5.5-2,11.5-2,19V373
		c0,36.2,12.8,49.8,35.8,63l196,111.5C254.5,548.5,256,549.2,257.8,549.8z M292,549.8c1.8-0.5,3.2-1.2,5-2.2L492.8,436
		c23.2-13.2,35.8-26.8,35.8-63V178.2c0-7.5-0.5-13.5-2-19L292,293.2V549.8z"/>
</g>
</svg>
