<?xml version="1.0" encoding="utf-8"?>
<!-- Generator: Adobe Illustrator 27.0.0, SVG Export Plug-In . SVG Version: 6.00 Build 0)  -->
<svg version="1.1"
	 id="svg2" xmlns:cc="http://creativecommons.org/ns#" xmlns:svg="http://www.w3.org/2000/svg" xmlns:dc="http://purl.org/dc/elements/1.1/" xmlns:rdf="http://www.w3.org/1999/02/22-rdf-syntax-ns#" opacity="0.9"
	 xmlns="http://www.w3.org/2000/svg" xmlns:xlink="http://www.w3.org/1999/xlink" x="0px" y="0px" viewBox="0 0 50 50"
	 style="enable-background:new 0 0 50 50;" xml:space="preserve">
<style type="text/css">
	.st0{fill:#FFFFFF;}
</style>
<g id="layer2" transform="translate(0,26)">
	<g id="g5213" transform="translate(0,-26)">
	</g>
	<path id="path6182" class="st0" d="M3.4-17.4v29.2c0,1.7,1.4,4.5,3.9,4.5h37.8c0.7,0,1.3-0.9,1.3-1.5V-6c0-0.9-0.9-2-1.8-2H12.4
		c-1.3,0-2.8,1.3-2.8,2.7v17.4c0,1-0.7,1.9-1.8,1.9s-1.7-1-1.7-1.8V-6.3c0,0-0.1-1.3,1.2-2.9s3.3-1.8,3.3-1.8l33.2-0.1
		c0,0-0.5-1.8-2.2-1.8H22.7l-4.2-4.4L3.4-17.4L3.4-17.4z M26.2-2.4h1.4V-1h-1.4V-2.4z M16.6,0.2c0.5,0,0.9,0.1,1.3,0.4
		c0.4,0.2,0.6,0.6,0.8,1c0.5-0.5,1-0.8,1.4-1s0.9-0.3,1.3-0.3c0.8,0,1.4,0.3,1.8,0.8s0.6,1.3,0.6,2.3v5.4h-1.2V4c0-0.4,0-0.7-0.1-1
		c0-0.3-0.1-0.6-0.2-0.8s-0.2-0.4-0.4-0.5c-0.2-0.1-0.5-0.2-0.8-0.2c-0.4,0-0.7,0.1-1.1,0.3s-0.7,0.4-1.1,0.8c0,0.1,0,0.3,0,0.4
		c0,0.1,0,0.3,0,0.4v5.3h-1.2V4c0-0.4,0-0.7-0.1-1c0-0.3-0.1-0.6-0.2-0.8S17.2,1.8,17,1.7c-0.2-0.1-0.5-0.2-0.8-0.2
		c-0.3,0-0.7,0.1-1,0.3s-0.7,0.4-1,0.7v6.2h-1.3V0.4h1.3v0.9C14.6,1,15,0.7,15.3,0.5C15.7,0.3,16.2,0.2,16.6,0.2z M32.6,0.2
		c0.4,0,0.9,0.1,1.3,0.2c0.5,0.1,0.9,0.3,1.2,0.4v1.5H35c-0.3-0.3-0.7-0.5-1.2-0.7s-0.9-0.3-1.3-0.3c-0.5,0-0.8,0.1-1.2,0.3
		c-0.3,0.2-0.5,0.5-0.5,0.9c0,0.3,0.1,0.6,0.3,0.8c0.2,0.2,0.5,0.3,0.9,0.4c0.2,0.1,0.5,0.1,0.8,0.2C33.1,4,33.3,4,33.5,4.1
		c0.6,0.1,1,0.4,1.3,0.8s0.5,0.8,0.5,1.4c0,0.8-0.3,1.4-0.8,1.9c-0.6,0.5-1.3,0.7-2.3,0.7c-0.6,0-1.1-0.1-1.5-0.2
		c-0.5-0.1-0.8-0.3-1.2-0.5V6.6h0.1C30,7,30.4,7.2,30.9,7.4c0.5,0.2,0.9,0.3,1.4,0.3c0.6,0,1-0.1,1.3-0.3c0.3-0.2,0.5-0.5,0.5-0.9
		c0-0.3-0.1-0.6-0.2-0.7c-0.2-0.2-0.5-0.3-1-0.4c-0.2,0-0.4-0.1-0.7-0.2C31.8,5.1,31.6,5,31.3,5c-0.7-0.2-1.1-0.5-1.4-0.8
		c-0.3-0.4-0.4-0.8-0.4-1.4c0-0.3,0.1-0.7,0.2-1S30,1.2,30.3,1c0.2-0.2,0.6-0.4,0.9-0.5C31.6,0.3,32.1,0.2,32.6,0.2z M40.3,0.2
		c0.4,0,0.8,0.1,1.2,0.2s0.8,0.3,1.2,0.5v1.5h-0.1c-0.4-0.3-0.8-0.6-1.2-0.8s-0.8-0.3-1.2-0.3c-0.7,0-1.3,0.3-1.7,0.8
		s-0.6,1.3-0.6,2.3s0.2,1.7,0.6,2.3c0.4,0.5,1,0.8,1.7,0.8c0.3,0,0.5-0.1,0.8-0.1c0.3-0.1,0.5-0.2,0.7-0.3C41.9,7,42,6.9,42.2,6.8
		s0.3-0.2,0.4-0.3h0.1V8c-0.4,0.2-0.8,0.4-1.2,0.5s-0.8,0.2-1.2,0.2c-0.5,0-1-0.1-1.5-0.2c-0.5-0.2-0.8-0.4-1.2-0.8
		c-0.3-0.4-0.6-0.8-0.8-1.3s-0.2-1.2-0.2-1.9c0-1.3,0.3-2.4,1-3.2C38.3,0.6,39.2,0.3,40.3,0.2z M26.2,0.4h1.2v8.2h-1.2V0.4z"/>
</g>
</svg>
