<?xml version="1.0" encoding="utf-8"?>
<!-- Generator: Adobe Illustrator 27.0.0, SVG Export Plug-In . SVG Version: 6.00 Build 0)  -->
<svg version="1.1" id="图层_1" xmlns="http://www.w3.org/2000/svg" xmlns:xlink="http://www.w3.org/1999/xlink" x="0px" y="0px"
	 viewBox="0 0 460.8 460.8" style="enable-background:new 0 0 460.8 460.8;" xml:space="preserve">
<style type="text/css">
	.st0{fill-opacity:0;}
	.st1{fill:#FFFFFF;fill-opacity:0.85;}
</style>
<g>
	<rect x="0.2" class="st0" width="460.2" height="460.8"/>
	<path class="st1" d="M460.5,78v305.2c0,51.5-26,77.5-78.5,77.5H78.8c-52.2,0-78.5-25.8-78.5-77.5V78c0-51.8,26.2-77.5,78.5-77.5
		H382C434.5,0.5,460.5,26.5,460.5,78z M292.5,125.2l-61.2,176.2h-1.8l-61-176.2c-4.2-12.2-10.5-17.8-22-17.8c-12,0-21,8.2-21,19.8
		c0,3.8,0.8,6.8,2,10.8L200,326.8c6.8,17.5,15,24.2,30.8,24.2c14.8,0,24-7.8,30.5-24.8L333.5,138c1.2-4,1.8-7,1.8-10.8
		c0-11.8-8.8-19.8-20.8-19.8C303,107.5,296.8,113,292.5,125.2z"/>
</g>
</svg>
