<?xml version="1.0" encoding="utf-8"?>
<!-- Generator: Adobe Illustrator 27.0.0, SVG Export Plug-In . SVG Version: 6.00 Build 0)  -->
<svg version="1.1"
	 id="svg3094" xmlns:dc="http://purl.org/dc/elements/1.1/" xmlns:svg="http://www.w3.org/2000/svg" xmlns:cc="http://creativecommons.org/ns#" xmlns:inkscape="http://www.inkscape.org/namespaces/inkscape" xmlns:rdf="http://www.w3.org/1999/02/22-rdf-syntax-ns#" xmlns:sodipodi="http://sodipodi.sourceforge.net/DTD/sodipodi-0.dtd" opacity="0.9"
	 xmlns="http://www.w3.org/2000/svg" xmlns:xlink="http://www.w3.org/1999/xlink" x="0px" y="0px" viewBox="0 0 50 50"
	 style="enable-background:new 0 0 50 50;" xml:space="preserve">
<style type="text/css">
	.st0{display:none;opacity:0.546;}
	.st1{fill:#FFFFFF;enable-background:new    ;}
</style>
<sodipodi:namedview  bordercolor="#666666" borderopacity="1" gridtolerance="10" guidetolerance="10" id="namedview3096" inkscape:current-layer="layer3" inkscape:cx="25.759935" inkscape:cy="25.153058" inkscape:pageopacity="0" inkscape:pageshadow="2" inkscape:window-height="1545" inkscape:window-maximized="1" inkscape:window-width="2560" inkscape:window-x="-2" inkscape:window-y="-3" inkscape:zoom="13.36" objecttolerance="10" pagecolor="#ffffff" showgrid="false">
	</sodipodi:namedview>
<g id="layer1" inkscape:groupmode="layer" inkscape:label="bg image" sodipodi:insensitive="true" class="st0">
</g>
<g id="layer3" inkscape:groupmode="layer" inkscape:label="Layer">
	<g id="g4555">
		<path id="path3125" inkscape:connector-curvature="0" sodipodi:nodetypes="sccscszsccszszscssssss" class="st1" d="M21.2,4.9
			c-5.1,0-5.4,4.4-5.4,4.4v4.4c0,0,4.5,0.2,7.6,0.2s2.5,1.9,2.5,1.9H9.3C6,15.8,5,18.8,5,22s0,7,0,7c0,6.7,4,6.9,4,6.9h5.2v-6.4
			c0-2.9,1.8-4.6,4.7-4.7c2.9-0.2,12.1,0,12.1,0c2.9,0,4.1-1.8,4.1-3.6s0-11.2,0-11.2c0-5-4.9-4.9-4.9-4.9h-9
			C21.2,5.1,21.2,4.9,21.2,4.9z M19.9,8.2c1,0,1.8,0.8,1.8,1.8s-0.8,1.8-1.8,1.8S18.1,11,18.1,10S18.9,8.2,19.9,8.2z"/>
		<path id="use4551" inkscape:connector-curvature="0" sodipodi:nodetypes="sccscszsccszszscssssss" class="st1" d="M29.8,46.4
			c5.1,0,5.4-4.4,5.4-4.4v-4.4c0,0-4.5-0.2-7.6-0.2s-2.5-1.9-2.5-1.9h16.6c3.3,0,4.3-3,4.3-6.2s0-6.9,0-6.9c0-6.7-4-6.9-4-6.9h-5.2
			v6.4c0,2.9-1.8,4.6-4.7,4.7c-2.9,0.2-12.1,0-12.1,0c-2.9,0-4.1,1.8-4.1,3.6c0,1.9,0,11.2,0,11.2c0,5,4.9,4.9,4.9,4.9h9
			C29.8,46.3,29.8,46.4,29.8,46.4z M31.1,43.1c-1,0-1.8-0.8-1.8-1.8s0.8-1.8,1.8-1.8c1,0,1.8,0.8,1.8,1.8S32.1,43.1,31.1,43.1z"/>
	</g>
</g>
</svg>
