<?xml version="1.0" encoding="UTF-8" standalone="no"?>
<!-- Created with Inkscape (http://www.inkscape.org/) -->

<svg
   xmlns:dc="http://purl.org/dc/elements/1.1/"
   xmlns:cc="http://creativecommons.org/ns#"
   xmlns:rdf="http://www.w3.org/1999/02/22-rdf-syntax-ns#"
   xmlns:svg="http://www.w3.org/2000/svg"
   xmlns="http://www.w3.org/2000/svg"
   xmlns:xlink="http://www.w3.org/1999/xlink"
   version="1.1"
   width="50"
   height="50"
   id="svg2">
  <defs
     id="defs4">
    <linearGradient
       id="linearGradient3968">
      <stop
         id="stop3970"
         style="stop-color:#8c8c8c;stop-opacity:1"
         offset="0" />
      <stop
         id="stop3972"
         style="stop-color:#ababab;stop-opacity:1"
         offset="1" />
    </linearGradient>
    <linearGradient
       id="linearGradient3958">
      <stop
         id="stop3960"
         style="stop-color:#939393;stop-opacity:1"
         offset="0" />
      <stop
         id="stop3962"
         style="stop-color:#ababab;stop-opacity:1"
         offset="1" />
    </linearGradient>
    <linearGradient
       id="linearGradient3938">
      <stop
         id="stop3956"
         style="stop-color:#000000;stop-opacity:1"
         offset="0" />
      <stop
         id="stop3942"
         style="stop-color:#000000;stop-opacity:0"
         offset="1" />
    </linearGradient>
    <linearGradient
       x1="14.285284"
       y1="22.604288"
       x2="14.310259"
       y2="4.3775029"
       id="linearGradient3974"
       xlink:href="#linearGradient3968"
       gradientUnits="userSpaceOnUse"
       spreadMethod="pad" />
    <linearGradient
       x1="14.285284"
       y1="22.604288"
       x2="14.310259"
       y2="4.3775029"
       id="linearGradient4003-8"
       xlink:href="#linearGradient3968-6"
       gradientUnits="userSpaceOnUse"
       spreadMethod="pad" />
    <linearGradient
       id="linearGradient3968-6">
      <stop
         id="stop3970-5"
         style="stop-color:#8c8c8c;stop-opacity:1"
         offset="0" />
      <stop
         id="stop3972-2"
         style="stop-color:#ababab;stop-opacity:1"
         offset="1" />
    </linearGradient>
    <linearGradient
       x1="14.285284"
       y1="22.604288"
       x2="14.310259"
       y2="4.3775029"
       id="linearGradient4024-3"
       xlink:href="#linearGradient3968-6-3"
       gradientUnits="userSpaceOnUse"
       gradientTransform="matrix(2.3324227,0,0,2.3324227,-2.4150161,-30.353333)"
       spreadMethod="pad" />
    <linearGradient
       id="linearGradient3968-6-3">
      <stop
         id="stop3970-5-0"
         style="stop-color:#646464;stop-opacity:1"
         offset="0" />
      <stop
         id="stop3972-2-9"
         style="stop-color:#828282;stop-opacity:1"
         offset="1" />
    </linearGradient>
    <linearGradient
       x1="31.839352"
       y1="22.516987"
       x2="32.516926"
       y2="-24.416821"
       id="linearGradient4375"
       xlink:href="#linearGradient3968-6-3"
       gradientUnits="userSpaceOnUse" />
    <linearGradient
       x1="16.002995"
       y1="44.454964"
       x2="39.903069"
       y2="4.2603521"
       id="linearGradient4635"
       xlink:href="#linearGradient3968-6-3-8"
       gradientUnits="userSpaceOnUse" />
    <linearGradient
       id="linearGradient3968-6-3-8">
      <stop
         id="stop3970-5-0-0"
         style="stop-color:#646464;stop-opacity:1"
         offset="0" />
      <stop
         id="stop3972-2-9-9"
         style="stop-color:#828282;stop-opacity:1"
         offset="1" />
    </linearGradient>
    <linearGradient
       id="linearGradient4693">
      <stop
         id="stop4695"
         style="stop-color:#646464;stop-opacity:1"
         offset="0" />
      <stop
         id="stop4697"
         style="stop-color:#828282;stop-opacity:1"
         offset="1" />
    </linearGradient>
    <linearGradient
       x1="16.002995"
       y1="44.454964"
       x2="39.903069"
       y2="4.2603521"
       id="linearGradient4633"
       xlink:href="#linearGradient3968-6-3-8"
       gradientUnits="userSpaceOnUse" />
    <linearGradient
       id="linearGradient4700">
      <stop
         id="stop4702"
         style="stop-color:#646464;stop-opacity:1"
         offset="0" />
      <stop
         id="stop4704"
         style="stop-color:#828282;stop-opacity:1"
         offset="1" />
    </linearGradient>
    <linearGradient
       x1="16.002995"
       y1="44.454964"
       x2="39.903069"
       y2="4.2603521"
       id="linearGradient4635-5"
       xlink:href="#linearGradient3968-6-3-8-2"
       gradientUnits="userSpaceOnUse" />
    <linearGradient
       x1="16.002995"
       y1="44.454964"
       x2="39.903069"
       y2="4.2603521"
       id="linearGradient4633-0"
       xlink:href="#linearGradient3968-6-3-8-2"
       gradientUnits="userSpaceOnUse" />
    <linearGradient
       x1="16.002995"
       y1="44.454964"
       x2="39.903069"
       y2="4.2603521"
       id="linearGradient4631"
       xlink:href="#linearGradient3968-6-3-8-2"
       gradientUnits="userSpaceOnUse" />
    <linearGradient
       id="linearGradient4622">
      <stop
         id="stop4624"
         style="stop-color:#646464;stop-opacity:1"
         offset="0" />
      <stop
         id="stop4626"
         style="stop-color:#828282;stop-opacity:1"
         offset="1" />
    </linearGradient>
    <linearGradient
       x1="16.002995"
       y1="44.454964"
       x2="39.903069"
       y2="4.2603521"
       id="linearGradient4620"
       xlink:href="#linearGradient3968-6-3-8-2"
       gradientUnits="userSpaceOnUse" />
    <linearGradient
       id="linearGradient4614">
      <stop
         id="stop4616"
         style="stop-color:#646464;stop-opacity:1"
         offset="0" />
      <stop
         id="stop4618"
         style="stop-color:#828282;stop-opacity:1"
         offset="1" />
    </linearGradient>
    <linearGradient
       x1="16.002995"
       y1="44.454964"
       x2="39.903069"
       y2="4.2603521"
       id="linearGradient4612"
       xlink:href="#linearGradient3968-6-3-8-2"
       gradientUnits="userSpaceOnUse" />
    <linearGradient
       id="linearGradient3968-6-3-8-2">
      <stop
         id="stop3970-5-0-0-7"
         style="stop-color:#646464;stop-opacity:1"
         offset="0" />
      <stop
         id="stop3972-2-9-9-6"
         style="stop-color:#828282;stop-opacity:1"
         offset="1" />
    </linearGradient>
    <linearGradient
       x1="16.002995"
       y1="44.454964"
       x2="39.903069"
       y2="4.2603521"
       id="linearGradient4565"
       xlink:href="#linearGradient3968-6-3-8-2"
       gradientUnits="userSpaceOnUse" />
    <linearGradient
       x1="31.839352"
       y1="22.516987"
       x2="32.516926"
       y2="-24.416821"
       id="linearGradient4375-6"
       xlink:href="#linearGradient3968-6-3-3"
       gradientUnits="userSpaceOnUse" />
    <linearGradient
       id="linearGradient3968-6-3-3">
      <stop
         id="stop3970-5-0-6"
         style="stop-color:#646464;stop-opacity:1"
         offset="0" />
      <stop
         id="stop3972-2-9-6"
         style="stop-color:#828282;stop-opacity:1"
         offset="1" />
    </linearGradient>
    <linearGradient
       x1="14.285284"
       y1="22.604288"
       x2="14.310259"
       y2="4.3775029"
       id="linearGradient4024-3-4"
       xlink:href="#linearGradient3968-6-3-3"
       gradientUnits="userSpaceOnUse"
       gradientTransform="matrix(2.3324227,0,0,2.3324227,-2.4150161,-30.353333)"
       spreadMethod="pad" />
    <linearGradient
       id="linearGradient3968-6-2">
      <stop
         id="stop3970-5-03"
         style="stop-color:#8c8c8c;stop-opacity:1"
         offset="0" />
      <stop
         id="stop3972-2-1"
         style="stop-color:#ababab;stop-opacity:1"
         offset="1" />
    </linearGradient>
    <linearGradient
       x1="14.285284"
       y1="22.604288"
       x2="14.310259"
       y2="4.3775029"
       id="linearGradient4003-8-3"
       xlink:href="#linearGradient3968-6-2"
       gradientUnits="userSpaceOnUse"
       spreadMethod="pad" />
    <linearGradient
       x1="14.285284"
       y1="22.604288"
       x2="14.310259"
       y2="4.3775029"
       id="linearGradient3974-4"
       xlink:href="#linearGradient3968-9"
       gradientUnits="userSpaceOnUse"
       spreadMethod="pad" />
    <linearGradient
       id="linearGradient3938-4">
      <stop
         id="stop3956-1"
         style="stop-color:#000000;stop-opacity:1"
         offset="0" />
      <stop
         id="stop3942-9"
         style="stop-color:#000000;stop-opacity:0"
         offset="1" />
    </linearGradient>
    <linearGradient
       id="linearGradient3958-8">
      <stop
         id="stop3960-4"
         style="stop-color:#939393;stop-opacity:1"
         offset="0" />
      <stop
         id="stop3962-6"
         style="stop-color:#ababab;stop-opacity:1"
         offset="1" />
    </linearGradient>
    <linearGradient
       id="linearGradient3968-9">
      <stop
         id="stop3970-1"
         style="stop-color:#8c8c8c;stop-opacity:1"
         offset="0" />
      <stop
         id="stop3972-9"
         style="stop-color:#ababab;stop-opacity:1"
         offset="1" />
    </linearGradient>
    <linearGradient
       x1="26.098246"
       y1="42.794006"
       x2="37.694462"
       y2="11.431568"
       id="linearGradient6227"
       xlink:href="#linearGradient4622"
       gradientUnits="userSpaceOnUse" />
  </defs>
  <metadata
     id="metadata7">
    <rdf:RDF>
      <cc:Work
         rdf:about="">
        <dc:format>image/svg+xml</dc:format>
        <dc:type
           rdf:resource="http://purl.org/dc/dcmitype/StillImage" />
        <dc:title></dc:title>
      </cc:Work>
    </rdf:RDF>
  </metadata>
  <g
     transform="translate(0,26)"
     id="layer2"
     style="display:inline">
    <g
       transform="translate(0,-26)"
       id="g5213"
       style="display:inline" />
    <path
       d="m 3.375,8.625 0,29.25 c 0,1.74538 1.3923607,4.53125 3.90625,4.53125 l 37.78125,0 c 0.67931,0 1.34375,-0.85194 1.34375,-1.53125 l 0,-20.84375 c 0,-0.872522 -0.877478,-1.96875 -1.75,-1.96875 l -32.21875,0 c -1.325396,0 -2.78125,1.344524 -2.78125,2.65625 l 0,17.375 C 9.65625,39.120444 8.9329441,40 7.90625,40 6.879556,40 6.25,39.008856 6.25,38.1875 l 0,-18.46875 c 0,0 -0.075783,-1.334959 1.15625,-2.875 C 8.6382829,15.303709 10.6875,15 10.6875,15 l 33.25,-0.125 c 0,0 -0.51354,-1.84375 -2.15625,-1.84375 l -19.09375,0 L 18.46875,8.625 3.375,8.625 z m 22.78125,15 1.4375,0 0,1.4375 -1.4375,0 0,-1.4375 z m -9.5625,2.5625 c 0.508149,8e-6 0.929101,0.138866 1.28125,0.375 0.356594,0.23615 0.638651,0.550589 0.8125,0.96875 0.508148,-0.472277 0.955987,-0.793368 1.375,-1 0.418996,-0.211535 0.866788,-0.343742 1.34375,-0.34375 0.82017,8e-6 1.424686,0.292759 1.8125,0.84375 0.392248,0.546086 0.593738,1.29733 0.59375,2.28125 l 0,5.375 -1.25,0 0,-4.71875 c -10e-6,-0.354209 -0.03131,-0.67038 -0.0625,-1 -0.02676,-0.32961 -0.06266,-0.615708 -0.15625,-0.8125 -0.102533,-0.211537 -0.245838,-0.360511 -0.4375,-0.46875 -0.191683,-0.108224 -0.482702,-0.156244 -0.84375,-0.15625 -0.352152,6e-6 -0.710367,0.08447 -1.0625,0.28125 -0.352151,0.191872 -0.710365,0.449909 -1.0625,0.75 0.01336,0.113158 0.02233,0.253747 0.03125,0.40625 0.0089,0.147594 0.03124,0.289916 0.03125,0.4375 l 0,5.28125 -1.25,0 0,-4.71875 c -6e-6,-0.364047 -0.03131,-0.706549 -0.0625,-1.03125 -0.02675,-0.32961 -0.0939,-0.584458 -0.1875,-0.78125 -0.102528,-0.211537 -0.245833,-0.365431 -0.4375,-0.46875 -0.191678,-0.108224 -0.451447,-0.156244 -0.8125,-0.15625 -0.343232,6e-6 -0.683568,0.09431 -1.03125,0.28125 -0.343231,0.186953 -0.688025,0.428498 -1.03125,0.71875 l 0,6.15625 -1.28125,0 0,-8.25 1.28125,0 0,0.90625 c 0.392258,-0.359125 0.768444,-0.642036 1.15625,-0.84375 0.392256,-0.201696 0.808703,-0.312492 1.25,-0.3125 z m 15.96875,0.03125 c 0.445746,8e-6 0.889081,0.06451 1.34375,0.1875 0.459117,0.118079 0.853133,0.265321 1.15625,0.4375 l 0,1.5 -0.09375,0 c -0.320946,-0.260734 -0.697133,-0.479136 -1.15625,-0.65625 -0.459127,-0.182019 -0.902461,-0.281243 -1.34375,-0.28125 -0.459126,7e-6 -0.83977,0.08447 -1.15625,0.28125 -0.316485,0.191872 -0.500003,0.491275 -0.5,0.875 -3e-6,0.33946 0.120825,0.609069 0.3125,0.78125 0.187213,0.172193 0.487243,0.298022 0.90625,0.40625 0.231787,0.05904 0.495966,0.128469 0.78125,0.1875 0.289733,0.05904 0.527072,0.107059 0.71875,0.15625 0.583927,0.147593 1.027262,0.390872 1.34375,0.75 0.316476,0.364057 0.468743,0.837308 0.46875,1.4375 -7e-6,0.752706 -0.277653,1.392876 -0.84375,1.875 -0.56165,0.482124 -1.336311,0.71875 -2.3125,0.71875 -0.552733,0 -1.067672,-0.07608 -1.53125,-0.21875 C 30.197126,34.508661 29.812024,34.359688 29.5,34.1875 l 0,-1.5625 0.0625,0 c 0.396716,0.329617 0.85788,0.584467 1.34375,0.78125 0.485865,0.191867 0.929247,0.281251 1.375,0.28125 0.552726,10e-7 1.00047,-0.08447 1.3125,-0.28125 0.312021,-0.196783 0.468745,-0.514409 0.46875,-0.9375 -5e-6,-0.324693 -0.08062,-0.55148 -0.25,-0.71875 -0.16939,-0.167265 -0.487344,-0.319426 -0.96875,-0.4375 -0.178304,-0.04427 -0.429016,-0.09721 -0.71875,-0.15625 -0.285283,-0.05903 -0.545004,-0.118621 -0.78125,-0.1875 -0.655254,-0.191862 -1.129887,-0.474774 -1.40625,-0.84375 -0.271909,-0.373887 -0.406251,-0.833835 -0.40625,-1.375 -1e-6,-0.339448 0.06269,-0.668646 0.1875,-0.96875 0.129266,-0.300091 0.335213,-0.57635 0.59375,-0.8125 0.249619,-0.231214 0.554153,-0.398412 0.9375,-0.53125 0.3878,-0.137742 0.835543,-0.218742 1.3125,-0.21875 z M 40.28125,26.25 c 0.427916,8e-6 0.839904,0.05468 1.25,0.1875 0.414541,0.132838 0.813017,0.308142 1.15625,0.5 l 0,1.53125 -0.09375,0 c -0.383351,-0.329609 -0.777415,-0.572886 -1.1875,-0.75 -0.405637,-0.177099 -0.799703,-0.281243 -1.1875,-0.28125 -0.713204,7e-6 -1.272955,0.281187 -1.6875,0.8125 -0.410092,0.526407 -0.625002,1.289222 -0.625,2.3125 -2e-6,0.993769 0.223822,1.745013 0.625,2.28125 0.40563,0.531322 0.956465,0.812501 1.6875,0.8125 0.254073,10e-7 0.518253,-0.05121 0.78125,-0.125 0.262988,-0.07379 0.509242,-0.163178 0.71875,-0.28125 0.182751,-0.103312 0.339524,-0.199346 0.5,-0.3125 0.160464,-0.118069 0.281386,-0.228864 0.375,-0.3125 l 0.09375,0 0,1.53125 c -0.419011,0.221384 -0.839868,0.40826 -1.21875,0.53125 -0.374436,0.122991 -0.764042,0.15625 -1.1875,0.15625 -0.539361,0 -1.049795,-0.07781 -1.5,-0.25 -0.45021,-0.177106 -0.835312,-0.427035 -1.15625,-0.78125 -0.325399,-0.354212 -0.571701,-0.802589 -0.75,-1.34375 -0.178301,-0.541157 -0.250001,-1.18306 -0.25,-1.90625 -10e-7,-1.347973 0.331373,-2.420031 1,-3.1875 0.673081,-0.767454 1.555244,-1.124992 2.65625,-1.125 z M 26.25,26.4375 l 1.25,0 0,8.25 -1.25,0 0,-8.25 z"
       transform="translate(0,-26)"
       id="path6182"
       style="fill:url(#linearGradient6227);fill-opacity:1;stroke:none" />
  </g>
</svg>
