<?xml version="1.0" encoding="utf-8"?>
<!-- Generator: Adobe Illustrator 27.0.0, SVG Export Plug-In . SVG Version: 6.00 Build 0)  -->
<svg version="1.1" id="图层_1" xmlns="http://www.w3.org/2000/svg" xmlns:xlink="http://www.w3.org/1999/xlink" x="0px" y="0px"
	 viewBox="0 0 460.8 460.8" style="enable-background:new 0 0 460.8 460.8;" xml:space="preserve">
<style type="text/css">
	.st0{fill-opacity:0;}
	.st1{fill:#FFFFFF;fill-opacity:0.85;}
</style>
<g>
	<rect x="0.2" class="st0" width="460.2" height="460.8"/>
	<path class="st1" d="M460.5,78v305.2c0,51.5-26,77.5-78.5,77.5H78.8c-52.2,0-78.5-25.8-78.5-77.5V78c0-51.8,26.2-77.5,78.5-77.5
		H382C434.5,0.5,460.5,26.5,460.5,78z M189.8,184c-10.5,0-18.8,8.2-18.8,18.2c0,10.8,8.2,18.5,18.8,18.5h27.5v117.5h-31.8
		c-10.8,0-19,8.2-19,18.2c0,10.8,8.2,18.5,19,18.5h104.8c10.8,0,19-7.8,19-18.5c0-10-8.2-18.2-19-18.2h-31.8V207.5
		c0-14-7-23.5-20.2-23.5H189.8z M194.5,107.5c0,19,15,34,33.8,34s33.5-15,33.5-34s-14.8-34-33.5-34S194.5,88.5,194.5,107.5z"/>
</g>
</svg>
