<?xml version="1.0" encoding="utf-8"?>
<!-- Generator: Adobe Illustrator 27.0.0, SVG Export Plug-In . SVG Version: 6.00 Build 0)  -->
<svg version="1.1" id="图层_1" xmlns="http://www.w3.org/2000/svg" xmlns:xlink="http://www.w3.org/1999/xlink" x="0px" y="0px"
	 viewBox="0 0 569.2 569.2" style="enable-background:new 0 0 569.2 569.2;" xml:space="preserve">
<style type="text/css">
	.st0{fill-opacity:0;}
	.st1{fill:#FF453A;fill-opacity:0.85;}
</style>
<g>
	<rect x="52.6" class="st0" width="464.1" height="569.2"/>
	<path class="st1" d="M276.7,544.2c87.8,0,143.8-50,183-141.2L512,279.8c12-27.8-0.5-52-20.5-62.5c-19.5-10-46-6.5-62.5,20.2
		L405.2,280c-0.8,1-1.2,1.8-2.2,1.8c-1.2,0-2.2-1-1.8-2.5l32.5-188.8c5.5-31-10.2-52.8-37.5-57.8c-29.5-5-52.5,8.8-58.8,41.2
		l-7.5,43.8h3V50.5C333,21,312.5,0,284,0c-29.8,0-49.5,21.8-49.5,52.2v32l6.2-1.2l-3-20c-7.2-27.5-30.2-39.2-54.2-35
		c-29,5-43.7,29.2-40.2,58l4.8,41l9.2-2c-8.5-27.2-29.7-36-53-31.8c-30,5.2-43.8,26.8-39.2,57.5l33.2,223
		C114,479.8,171,544.2,276.7,544.2z M275.5,509.8c-88.5,0-130-50.5-144-140l-36-224.5c-1.5-10.2,4.2-18.5,14-20.2
		c9-1.5,17.2,4.5,19.5,13.8l36.2,135.8c2.5,9.5,10,13.2,17.8,11.8c8.5-1.2,14.2-8.8,13.2-17.2L174.7,80.8c-1.2-11,3.8-19,14-20.8
		s18.5,4.8,20,14.8l26,188.8c1,8,8.2,13.2,17,12c10.8-1.8,14.5-8.2,14.5-17.2V50.5c0-10.5,7.2-18,17.8-18c10,0,17.2,7.5,17.2,18v210
		c0,8.5,7.2,15,15.5,15c8.5,0,14.5-5.5,16-14l35.5-182c2.2-12,10.8-17,20.2-15.2c9.8,1.5,15.5,9.8,13.8,20.8l-35.5,234
		c-3.2,21.2,8.5,28.5,19,28.5c9,0,15.2-4.5,22.2-16.5l44.5-79c5.2-10,14.8-12.8,22.5-9.5c8.5,3,13,12,8.2,23.2l-54,126.5
		C393.5,475,345.2,509.8,275.5,509.8z"/>
</g>
</svg>
