<?xml version="1.0" encoding="utf-8"?>
<!-- Generator: Adobe Illustrator 27.0.0, SVG Export Plug-In . SVG Version: 6.00 Build 0)  -->
<svg version="1.1" id="图层_1" xmlns="http://www.w3.org/2000/svg" xmlns:xlink="http://www.w3.org/1999/xlink" x="0px" y="0px"
	 viewBox="0 0 558.2 558.2" style="enable-background:new 0 0 558.2 558.2;" xml:space="preserve">
<style type="text/css">
	.st0{fill-opacity:0;}
	.st1{fill:#FF453A;fill-opacity:0.85;}
</style>
<g>
	<rect y="64" class="st0" width="558.2" height="430.3"/>
	<path class="st1" d="M0,307.3c0,111,74.5,185.5,197.2,185.5h57.2c60.5,0,96-28.8,96.5-77.5c19.5-6,31-22,31-43.8
		c0-8-1.5-15.8-3.8-23c21-6.8,34-24.2,34-47c0-6-0.8-12.2-2.8-18.5h87.2c33.5,0,55.2-22,55.2-53.2s-21.8-53.2-55.2-53.2H278
		c-1.2,0-2.2-0.5-2.2-2c0-1,0.5-2,1.8-2.2l42-17.5c20.5-8.8,31.2-24,31.2-42.8c0-25.5-16.2-48-45-48c-8-0.2-18.5,1.3-27.5,4.8
		l-130,46.2C49.8,150,0,214.5,0,307.3z M36,308.8C36,235.3,70,179,159.5,147l129.8-46.5c3.8-1.5,7.2-2,11.8-2c9.2,0,17,6.8,17,17.2
		c0,9-5.2,14-14.2,18l-80,35.5c-13,6-17.2,14.2-17.2,23.5c0,11,8.8,18.8,20.5,18.8h272.2c11.2,0,19,7.5,19,18.2
		c0,11-7.8,18.2-19,18.2H305c-9,0-16.2,7.8-16.2,17c0,8.8,7.2,16.5,16.2,16.5h70c2,4.2,3.5,10.5,3.5,15.5c0,13-8.8,21.2-22.5,21.2
		h-60.8c-9.8,0-16.5,7.8-16.5,16.5s6.8,16.5,16.5,16.5h49.5c2,4.5,3.2,10.8,3.2,15.8c0,13.2-8.5,21-22,21h-41
		c-9.5,0-16.2,8.2-16.2,17s6.8,16.2,16.2,16.2h30c0,23.5-24,36.8-65.8,36.8h-47.8C95.8,458,36,401.5,36,308.8z"/>
</g>
</svg>
