<?xml version="1.0" encoding="utf-8"?>
<!-- Generator: Adobe Illustrator 27.0.0, SVG Export Plug-In . SVG Version: 6.00 Build 0)  -->
<svg version="1.1" id="图层_1" xmlns="http://www.w3.org/2000/svg" xmlns:xlink="http://www.w3.org/1999/xlink" x="0px" y="0px"
	 viewBox="0 0 580.3 580.2" style="enable-background:new 0 0 580.3 580.2;" xml:space="preserve">
<style type="text/css">
	.st0{fill-opacity:0;}
	.st1{fill:#FFFFFF;fill-opacity:0.85;}
</style>
<g>
	<rect x="50" y="0" class="st0" width="480.2" height="580.2"/>
	<path class="st1" d="M308.5,562.2c0,9.8-8.8,17.2-18.5,17.2s-18.2-7.5-18.2-17.2v-48.8h36.8V562.2z M308.5,314h-36.8v-48.2h36.8
		V314z M308.5,17.2v49h-36.8v-49C271.8,7.5,280.3,0,290,0S308.5,7.5,308.5,17.2z"/>
	<path class="st1" d="M195.8,265.8h188.7c37,0,57.2-19.8,57.2-56.3v-87c0-36.5-20.2-56.2-57.2-56.2H195.8
		c-37.2,0-57.2,19.8-57.2,56.2v87C138.5,246,158.5,265.8,195.8,265.8z M107.3,513.5H473c37,0,57.2-19.8,57.2-56.2v-87
		C530.3,334,510,314,473,314H107.3C70,314,50,334,50,370.2v87C50,493.8,70,513.5,107.3,513.5z"/>
</g>
</svg>
