<?xml version="1.0" encoding="utf-8"?>
<!-- Generator: Adobe Illustrator 27.0.0, SVG Export Plug-In . SVG Version: 6.00 Build 0)  -->
<svg version="1.1" id="图层_1" xmlns="http://www.w3.org/2000/svg" xmlns:xlink="http://www.w3.org/1999/xlink" x="0px" y="0px"
	 viewBox="0 0 579.5 579.5" style="enable-background:new 0 0 579.5 579.5;" xml:space="preserve">
<style type="text/css">
	.st0{fill-opacity:0;}
	.st1{fill:#FFFFFF;fill-opacity:0.85;}
</style>
<g>
	<rect y="48.9" class="st0" width="579.5" height="481.8"/>
	<path class="st1" d="M66.2,308.6H17.5c-10,0-17.5-8.8-17.5-18.5s7.5-18.2,17.5-18.2h48.8V308.6z M579.5,290.1
		c0,9.8-7.5,18.5-17.2,18.5h-48.5v-36.8h48.5C572,271.9,579.5,280.4,579.5,290.1z M314,308.6h-48.2v-36.8H314V308.6z"/>
	<path class="st1" d="M122.5,530.6h87c36.5,0,56.2-20.5,56.2-57.8V107.4c0-37.2-19.8-57.2-56.2-57.2h-87c-36.5,0-56.2,20-56.2,57.2
		v365.5C66.2,510.1,86,530.6,122.5,530.6z M370.5,441.6h87c36.2,0,56.2-20,56.2-57.2V195.9c0-37.2-20-57.2-56.2-57.2h-87
		c-36.5,0-56.5,20-56.5,57.2v188.5C314,421.6,334,441.6,370.5,441.6z"/>
</g>
</svg>
