<?xml version="1.0" encoding="utf-8"?>
<!-- Generator: Adobe Illustrator 20.1.0, SVG Export Plug-In . SVG Version: 6.00 Build 0)  -->
<svg version="1.1" id="SP_AlignCenter_Md_N" xmlns="http://www.w3.org/2000/svg" xmlns:xlink="http://www.w3.org/1999/xlink"
	 x="0px" y="0px" viewBox="0 0 18 18" style="enable-background:new 0 0 18 18;" xml:space="preserve">
<g id="content">
	<g id="SP_AlignCenter_Md_N.png">
		<path d="M13,4.5C13,4.2,12.8,4,12.5,4H10l0-2.5C10,1.3,9.8,1,9.5,1C9.2,1,9,1.3,9,1.5L9,4H6.5C6.2,4,6,4.2,6,4.5v3
			C6,7.8,6.2,8,6.5,8H9v2H4.5C4.2,10,4,10.2,4,10.5v3C4,13.8,4.2,14,4.5,14H9l0,2.5C9,16.8,9.2,17,9.5,17c0.3,0,0.5-0.2,0.5-0.5
			l0-2.5h4.5c0.3,0,0.5-0.2,0.5-0.5v-3c0-0.3-0.2-0.5-0.5-0.5H10V8h2.5C12.8,8,13,7.8,13,7.5V4.5z"/>
	</g>
</g>
</svg>
