<?xml version="1.0" encoding="utf-8"?>
<!-- Generator: Adobe Illustrator 23.0.0, SVG Export Plug-In . SVG Version: 6.00 Build 0)  -->
<svg version="1.1" id="SP_AlignCenter_Md_N" xmlns="http://www.w3.org/2000/svg" xmlns:xlink="http://www.w3.org/1999/xlink"
	 x="0px" y="0px" viewBox="0 0 18 18" style="enable-background:new 0 0 18 18;" xml:space="preserve">
<g id="content">
	<g id="SP_AlignCenter_Md_N.png">
		<path d="M13.5,12.5c0.3,0,0.5-0.2,0.5-0.5V9.5h2.5C16.7,9.5,17,9.3,17,9s-0.3-0.5-0.5-0.5H14V6c0-0.3-0.2-0.5-0.5-0.5h-3
			C10.2,5.5,10,5.7,10,6v2.5H8V4c0-0.3-0.2-0.5-0.5-0.5h-3C4.2,3.5,4,3.7,4,4v4.5H1.5C1.2,8.5,1,8.7,1,9s0.2,0.5,0.5,0.5H4V14
			c0,0.3,0.2,0.5,0.5,0.5h3C7.8,14.5,8,14.3,8,14V9.5h2V12c0,0.3,0.2,0.5,0.5,0.5H13.5z"/>
	</g>
</g>
</svg>
