<?xml version="1.0" encoding="utf-8"?>
<!-- Generator: Adobe Illustrator 20.1.0, SVG Export Plug-In . SVG Version: 6.00 Build 0)  -->
<svg version="1.1" id="SP_AlignTop_Md_N" xmlns="http://www.w3.org/2000/svg" xmlns:xlink="http://www.w3.org/1999/xlink" x="0px"
	 y="0px" viewBox="0 0 18 18" style="enable-background:new 0 0 18 18;" xml:space="preserve">
<g id="content">
	<g id="SP_AlignTop_Md_N.png">
		<g>
			<path d="M2,3.5C2,3.2,2.2,3,2.5,3h13C15.8,3,16,3.2,16,3.5C16,3.8,15.7,4,15.5,4h-13C2.2,4,2,3.8,2,3.5z"/>
			<path d="M4.5,5C4.2,5,4,5.2,4,5.5l0,10C4,15.8,4.2,16,4.5,16h3C7.8,16,8,15.8,8,15.5l0-10C8,5.2,7.8,5,7.5,5H4.5z"/>
			<path d="M10.5,5C10.2,5,10,5.2,10,5.5l0,6c0,0.3,0.2,0.5,0.5,0.5h3c0.3,0,0.5-0.2,0.5-0.5l0-6C14,5.2,13.8,5,13.5,5L10.5,5z"/>
		</g>
	</g>
</g>
</svg>
