<?xml version="1.0" encoding="utf-8"?>
<!-- Generator: Adobe Illustrator 27.0.0, SVG Export Plug-In . SVG Version: 6.00 Build 0)  -->
<svg version="1.1" id="图层_1" xmlns="http://www.w3.org/2000/svg" xmlns:xlink="http://www.w3.org/1999/xlink" x="0px" y="0px"
	 viewBox="0 0 580.3 580.2" style="enable-background:new 0 0 580.3 580.2;" xml:space="preserve">
<style type="text/css">
	.st0{fill-opacity:0;}
	.st1{fill:#FFFFFF;fill-opacity:0.85;}
</style>
<g>
	<rect x="8.6" y="0" class="st0" width="563" height="580.2"/>
	<path class="st1" d="M431.6,265.8c37,0,57.2-19.8,57.2-56.3v-87c0-36.5-20.2-56.2-57.2-56.2H242.9c-37.2,0-57.2,19.8-57.2,56.2v87
		c0,36.5,20,56.3,57.2,56.3H431.6z M431.6,513.5c37,0,57.2-19.8,57.2-56.2v-87c0-36.2-20.2-56.2-57.2-56.2H65.9
		c-37.2,0-57.2,20-57.2,56.2v87c0,36.5,20,56.2,57.2,56.2H431.6z"/>
	<path class="st1" d="M553.4,579.5c9.8,0,18.2-7.5,18.2-17.2v-545c0-9.8-8.5-17.2-18.2-17.2s-18.5,7.5-18.5,17.2v545
		C534.9,572,543.6,579.5,553.4,579.5z"/>
</g>
</svg>
