<?xml version="1.0" encoding="utf-8"?>
<!-- Generator: Adobe Illustrator 27.0.0, SVG Export Plug-In . SVG Version: 6.00 Build 0)  -->
<svg version="1.1" id="图层_1" xmlns="http://www.w3.org/2000/svg" xmlns:xlink="http://www.w3.org/1999/xlink" x="0px" y="0px"
	 viewBox="0 0 579.5 579.5" style="enable-background:new 0 0 579.5 579.5;" xml:space="preserve">
<style type="text/css">
	.st0{fill-opacity:0;}
	.st1{fill:#FFFFFF;fill-opacity:0.85;}
</style>
<g>
	<rect y="7.6" class="st0" width="579.5" height="564.2"/>
	<path class="st1" d="M122.5,488.4h87c36.5,0,56.2-20,56.2-57.2V65.4c0-37.2-19.8-57.2-56.2-57.2h-87c-36.5,0-56.2,20-56.2,57.2
		v365.8C66.2,468.4,86,488.4,122.5,488.4z M370.5,488.4h87c36.2,0,56.2-20,56.2-57.2V242.4c0-37-20-57.2-56.2-57.2h-87
		c-36.5,0-56.5,20.2-56.5,57.2v188.8C314,468.4,334,488.4,370.5,488.4z"/>
	<path class="st1" d="M17.5,571.9h544.8c9.8,0,17.2-8.5,17.2-18.2s-7.5-18.5-17.2-18.5H17.5c-10,0-17.5,8.8-17.5,18.5
		S7.5,571.9,17.5,571.9z"/>
</g>
</svg>
