<?xml version="1.0" encoding="utf-8"?>
<!-- Generator: Adobe Illustrator 27.0.0, SVG Export Plug-In . SVG Version: 6.00 Build 0)  -->
<svg version="1.1" id="图层_1" xmlns="http://www.w3.org/2000/svg" xmlns:xlink="http://www.w3.org/1999/xlink" x="0px" y="0px"
	 viewBox="0 0 580.3 580.2" style="enable-background:new 0 0 580.3 580.2;" xml:space="preserve">
<style type="text/css">
	.st0{fill-opacity:0;}
	.st1{fill:#FFFFFF;fill-opacity:0.85;}
</style>
<g>
	<rect x="8.6" y="0" class="st0" width="563" height="580.2"/>
	<path class="st1" d="M148.6,265.8h188.7c37.2,0,57.2-19.8,57.2-56.3v-87c0-36.5-20-56.2-57.2-56.2H148.6c-37,0-57.3,19.8-57.3,56.2
		v87C91.4,246,111.6,265.8,148.6,265.8z M148.6,513.5h365.8c37.2,0,57.2-19.8,57.2-56.2v-87c0-36.2-20-56.2-57.2-56.2H148.6
		c-37,0-57.3,20-57.3,56.2v87C91.4,493.8,111.6,513.5,148.6,513.5z"/>
	<path class="st1" d="M26.9,579.5c10,0,18.5-7.5,18.5-17.2v-545C45.4,7.5,36.9,0,26.9,0C17.1,0,8.6,7.5,8.6,17.2v545
		C8.6,572,17.1,579.5,26.9,579.5z"/>
</g>
</svg>
