<?xml version="1.0" encoding="utf-8"?>
<!-- Generator: Adobe Illustrator 20.1.0, SVG Export Plug-In . SVG Version: 6.00 Build 0)  -->
<svg version="1.1" id="SP_AlignLeft_Md_N" xmlns="http://www.w3.org/2000/svg" xmlns:xlink="http://www.w3.org/1999/xlink" x="0px"
	 y="0px" viewBox="0 0 18 18" style="enable-background:new 0 0 18 18;" xml:space="preserve">
<g id="content">
	<g id="SP_AlignLeft_Md_N.png">
		<g>
			<path d="M3.5,1C3.8,1,4,1.2,4,1.5v14C4,15.7,3.8,16,3.5,16C3.2,16,3,15.8,3,15.5v-14C3,1.2,3.2,1,3.5,1z"/>
			<path d="M12,4.5C12,4.2,11.8,4,11.5,4h-6C5.2,4,5,4.2,5,4.5v3C5,7.8,5.2,8,5.5,8h6C11.8,8,12,7.8,12,7.5V4.5z"/>
			<path d="M16,10.5c0-0.3-0.2-0.5-0.5-0.5l-10,0C5.2,10,5,10.2,5,10.5v3C5,13.8,5.2,14,5.5,14l10,0c0.3,0,0.5-0.2,0.5-0.5L16,10.5z
				"/>
		</g>
	</g>
</g>
</svg>
