<?xml version="1.0" encoding="utf-8"?>
<!-- Generator: Adobe Illustrator 20.1.0, SVG Export Plug-In . SVG Version: 6.00 Build 0)  -->
<svg version="1.1" id="SP_AlignBottom_Md_N" xmlns="http://www.w3.org/2000/svg" xmlns:xlink="http://www.w3.org/1999/xlink"
	 x="0px" y="0px" viewBox="0 0 18 18" style="enable-background:new 0 0 18 18;" xml:space="preserve">
<g id="content">
	<g id="SP_AlignBottom_Md_N.png">
		<g>
			<g>
				<path d="M4.5,2C4.2,2,4,2.2,4,2.5v10C4,12.8,4.2,13,4.5,13h3C7.8,13,8,12.8,8,12.5v-10C8,2.2,7.8,2,7.5,2H4.5z"/>
				<path d="M10.5,6C10.2,6,10,6.2,10,6.5v6c0,0.3,0.2,0.5,0.5,0.5h3c0.3,0,0.5-0.2,0.5-0.5v-6C14,6.2,13.8,6,13.5,6H10.5z"/>
			</g>
			<path d="M2,14.5C2,14.2,2.2,14,2.5,14h13c0.3,0,0.5,0.2,0.5,0.5S15.8,15,15.5,15h-13C2.2,15,2,14.8,2,14.5z"/>
		</g>
	</g>
</g>
</svg>
