<?xml version="1.0" encoding="utf-8"?>
<!-- Generator: Adobe Illustrator 25.4.1, SVG Export Plug-In . SVG Version: 6.00 Build 0)  -->
<svg version="1.1" id="图层_1" xmlns="http://www.w3.org/2000/svg" xmlns:xlink="http://www.w3.org/1999/xlink" x="0px" y="0px"
	 viewBox="0 0 512 512" style="enable-background:new 0 0 512 512;" xml:space="preserve">
<style type="text/css">
	.st0{fill:none;}
</style>
<g>
	<rect class="st0" width="512" height="512"/>
	<path d="M50.2,233.8v-39.2l-34.1-53.9h22L60,177.5l21.5-36.8h21.6l-34.2,54v39H50.2z"/>
	<path d="M144.2,212.3l17.8,3c-2.3,6.5-5.9,11.5-10.8,14.9c-4.9,3.4-11.1,5.1-18.5,5.1c-11.7,0-20.4-3.8-26-11.5
		c-4.4-6.1-6.7-13.9-6.7-23.2c0-11.2,2.9-19.9,8.8-26.2c5.8-6.3,13.2-9.5,22.2-9.5c10,0,17.9,3.3,23.7,9.9
		c5.8,6.6,8.6,16.8,8.3,30.4h-44.7c0.1,5.3,1.6,9.4,4.3,12.3c2.8,2.9,6.2,4.4,10.3,4.4c2.8,0,5.1-0.8,7-2.3S143.2,215.7,144.2,212.3
		z M145.2,194.3c-0.1-5.2-1.5-9.1-4-11.8c-2.5-2.7-5.6-4-9.3-4c-3.9,0-7.1,1.4-9.6,4.3c-2.5,2.8-3.8,6.7-3.7,11.6H145.2z"/>
	<path d="M171.2,214.5l17.9-2.7c0.8,3.5,2.3,6.1,4.6,7.9c2.3,1.8,5.6,2.7,9.8,2.7c4.6,0,8.1-0.8,10.4-2.5c1.6-1.2,2.3-2.8,2.3-4.8
		c0-1.4-0.4-2.5-1.3-3.4c-0.9-0.8-2.9-1.6-6-2.3c-14.4-3.2-23.5-6.1-27.4-8.7c-5.3-3.6-8-8.7-8-15.2c0-5.8,2.3-10.7,6.9-14.7
		c4.6-4,11.8-6,21.5-6c9.2,0,16.1,1.5,20.6,4.5c4.5,3,7.6,7.4,9.3,13.3l-16.8,3.1c-0.7-2.6-2.1-4.6-4.1-6c-2-1.4-4.9-2.1-8.6-2.1
		c-4.7,0-8.1,0.7-10.1,2c-1.4,0.9-2,2.1-2,3.6c0,1.3,0.6,2.3,1.8,3.2c1.6,1.2,7.2,2.9,16.7,5c9.5,2.2,16.1,4.8,19.9,7.9
		c3.7,3.2,5.6,7.6,5.6,13.3c0,6.2-2.6,11.5-7.7,15.9c-5.2,4.4-12.8,6.7-22.9,6.7c-9.2,0-16.5-1.9-21.8-5.6
		C176.3,226,172.8,220.9,171.2,214.5z"/>
	<path d="M249.3,215.9h17.8v12.8c0,5.2-0.4,9.2-1.3,12.2s-2.6,5.7-5,8c-2.5,2.4-5.6,4.2-9.4,5.6l-3.5-7.4c3.6-1.2,6.2-2.8,7.7-4.9
		c1.5-2.1,2.3-4.9,2.4-8.5h-8.6V215.9z"/>
	<path d="M322,157.2v-16.5h17.8v16.5H322z M322,233.8v-67.4h17.8v67.4H322z"/>
	<path d="M389,166.4v14.2h-12.2v27.2c0,5.5,0.1,8.7,0.3,9.6c0.2,0.9,0.8,1.7,1.6,2.3c0.8,0.6,1.8,0.9,3,0.9c1.7,0,4-0.6,7.2-1.7
		l1.5,13.8c-4.1,1.8-8.8,2.7-14.1,2.7c-3.2,0-6.1-0.5-8.7-1.6c-2.6-1.1-4.5-2.5-5.7-4.2c-1.2-1.7-2-4-2.5-7
		c-0.4-2.1-0.6-6.3-0.6-12.6v-29.4h-8.2v-14.2h8.2V153l17.9-10.4v23.8H389z"/>
	<path d="M401,141h17.8v12.8c0,5.2-0.4,9.2-1.3,12.2s-2.6,5.7-5,8c-2.5,2.4-5.6,4.2-9.4,5.6l-3.5-7.4c3.6-1.2,6.2-2.8,7.7-4.9
		c1.5-2.1,2.3-4.9,2.4-8.5H401V141z"/>
	<path d="M426.4,214.5l17.9-2.7c0.8,3.5,2.3,6.1,4.6,7.9c2.3,1.8,5.6,2.7,9.8,2.7c4.6,0,8.1-0.8,10.4-2.5c1.6-1.2,2.3-2.8,2.3-4.8
		c0-1.4-0.4-2.5-1.3-3.4c-0.9-0.8-2.9-1.6-6-2.3c-14.4-3.2-23.5-6.1-27.4-8.7c-5.3-3.6-8-8.7-8-15.2c0-5.8,2.3-10.7,6.9-14.7
		c4.6-4,11.8-6,21.5-6c9.2,0,16.1,1.5,20.6,4.5c4.5,3,7.6,7.4,9.3,13.3l-16.8,3.1c-0.7-2.6-2.1-4.6-4.1-6s-4.9-2.1-8.6-2.1
		c-4.7,0-8.1,0.7-10.1,2c-1.4,0.9-2,2.1-2,3.6c0,1.3,0.6,2.3,1.8,3.2c1.6,1.2,7.2,2.9,16.7,5s16.1,4.8,19.9,7.9
		c3.7,3.2,5.6,7.6,5.6,13.3c0,6.2-2.6,11.5-7.7,15.9c-5.2,4.4-12.8,6.7-22.9,6.7c-9.2,0-16.5-1.9-21.8-5.6
		C431.6,226,428.1,220.9,426.4,214.5z"/>
	<path d="M130.3,322.4h16.4v9.2c5.9-7.2,12.9-10.7,21-10.7c4.3,0,8.1,0.9,11.2,2.7s5.8,4.5,7.8,8.1c3-3.6,6.2-6.3,9.6-8.1
		s7.1-2.7,11-2.7c5,0,9.1,1,12.6,3s6,5,7.7,8.9c1.2,2.9,1.8,7.5,1.8,14v43.1h-17.8v-38.5c0-6.7-0.6-11-1.8-12.9
		c-1.7-2.5-4.2-3.8-7.6-3.8c-2.5,0-4.8,0.8-7,2.3c-2.2,1.5-3.8,3.8-4.8,6.7c-1,2.9-1.5,7.6-1.5,13.9v32.4h-17.8v-36.9
		c0-6.6-0.3-10.8-1-12.7s-1.6-3.3-3-4.3c-1.3-0.9-3.1-1.4-5.4-1.4c-2.8,0-5.2,0.7-7.4,2.2c-2.2,1.5-3.8,3.6-4.7,6.4
		s-1.4,7.4-1.4,13.9v32.8h-17.8V322.4z"/>
	<path d="M286.3,368.3l17.8,3c-2.3,6.5-5.9,11.5-10.8,14.9c-4.9,3.4-11.1,5.1-18.5,5.1c-11.7,0-20.4-3.8-26-11.5
		c-4.4-6.1-6.7-13.9-6.7-23.2c0-11.2,2.9-19.9,8.8-26.2c5.8-6.3,13.2-9.5,22.2-9.5c10,0,17.9,3.3,23.7,9.9
		c5.8,6.6,8.6,16.8,8.3,30.4h-44.7c0.1,5.3,1.6,9.4,4.3,12.3c2.8,2.9,6.2,4.4,10.3,4.4c2.8,0,5.1-0.8,7-2.3S285.3,371.7,286.3,368.3
		z M287.3,350.3c-0.1-5.2-1.5-9.1-4-11.8c-2.5-2.7-5.6-4-9.3-4c-3.9,0-7.1,1.4-9.6,4.3c-2.5,2.8-3.8,6.7-3.7,11.6H287.3z"/>
	<path d="M362.7,365.8l-4.6-47.2v-21.8h19.3v21.8l-4.6,47.2H362.7z M358.8,389.8v-17.8h17.8v17.8H358.8z"/>
</g>
</svg>
